<svg width="18" height="18" viewBox="0 0 18 18" fill="none" xmlns="http://www.w3.org/2000/svg">
<path d="M9 0C4.0275 0 0 3.96 0 8.844C0 12.7522 2.5785 16.0665 6.15375 17.235C6.60375 17.3182 6.76875 17.0445 6.76875 16.8097C6.76875 16.5998 6.76125 16.0433 6.7575 15.306C4.254 15.8393 3.726 14.1195 3.726 14.1195C3.3165 13.0988 2.72475 12.8258 2.72475 12.8258C1.9095 12.2775 2.78775 12.2887 2.78775 12.2887C3.6915 12.3503 4.16625 13.2 4.16625 13.2C4.96875 14.5522 6.273 14.1615 6.7875 13.9357C6.8685 13.3635 7.10025 12.9742 7.3575 12.753C5.35875 12.5317 3.258 11.7712 3.258 8.38275C3.258 7.4175 3.60675 6.6285 4.18425 6.00975C4.083 5.78625 3.77925 4.887 4.263 3.669C4.263 3.669 5.01675 3.432 6.738 4.57575C7.458 4.37925 8.223 4.28175 8.988 4.27725C9.753 4.28175 10.518 4.37925 11.238 4.57575C12.948 3.432 13.7017 3.669 13.7017 3.669C14.1855 4.887 13.8818 5.78625 13.7917 6.00975C14.3655 6.6285 14.7142 7.4175 14.7142 8.38275C14.7142 11.7803 12.6105 12.528 10.608 12.7455C10.923 13.011 11.2155 13.5533 11.2155 14.382C11.2155 15.5655 11.2043 16.5165 11.2043 16.8038C11.2043 17.0355 11.3617 17.3123 11.823 17.2238C15.4237 16.0627 18 12.7463 18 8.844C18 3.96 13.9703 0 9 0Z" fill="white"/>
</svg>
