<svg width="9" height="15" viewBox="0 0 9 15" fill="none" xmlns="http://www.w3.org/2000/svg">
<path d="M8.24937 0.00312097L6.30422 0C4.11892 0 2.70668 1.44891 2.70668 3.69148V5.3935H0.750924C0.581923 5.3935 0.445068 5.53051 0.445068 5.69951V8.16555C0.445068 8.33455 0.582079 8.4714 0.750924 8.4714H2.70668V14.694C2.70668 14.863 2.84353 14.9998 3.01253 14.9998H5.56424C5.73324 14.9998 5.8701 14.8628 5.8701 14.694V8.4714H8.15683C8.32583 8.4714 8.46269 8.33455 8.46269 8.16555L8.46362 5.69951C8.46362 5.61837 8.43132 5.54066 8.37405 5.48323C8.31678 5.4258 8.23876 5.3935 8.15761 5.3935H5.8701V3.95068C5.8701 3.2572 6.03535 2.90515 6.93872 2.90515L8.24905 2.90469C8.4179 2.90469 8.55475 2.76767 8.55475 2.59883V0.308976C8.55475 0.140288 8.41806 0.00343307 8.24937 0.00312097Z" fill="black"/>
</svg>
