<svg width="20" height="20" viewBox="0 0 20 20" fill="none" xmlns="http://www.w3.org/2000/svg">
<g clip-path="url(#clip0_118_280)">
<path d="M18.1857 7.5H16.3632V9.31417H14.5491V11.1367H16.3632V12.9508H18.1857V11.1367H19.9999V9.31417H18.1857V7.5Z" fill="black"/>
<path d="M6.25 16.25C9.85667 16.25 12.2525 13.7183 12.2525 10.145C12.2525 9.73583 12.21 9.42 12.1508 9.105H6.25083V11.2533H9.79833C9.65333 12.1658 8.72417 13.9475 6.25083 13.9475C4.12 13.9475 2.38 12.1825 2.38 10C2.38 7.8175 4.11917 6.05167 6.25083 6.05167C7.47 6.05167 8.28 6.57167 8.74083 7.015L10.4375 5.38667C9.345 4.36417 7.93833 3.75 6.25 3.75C2.79667 3.75 0 6.54667 0 10C0 13.4533 2.79667 16.25 6.25 16.25Z" fill="black"/>
</g>
<defs>
<clipPath id="clip0_118_280">
<rect width="20" height="20" fill="white"/>
</clipPath>
</defs>
</svg>
