<svg width="15" height="15" viewBox="0 0 15 15" fill="none" xmlns="http://www.w3.org/2000/svg">
<path d="M7.50053 0.000244141C3.35822 0.000244141 0 3.35799 0 7.49928C0 10.571 1.84644 13.2091 4.48961 14.3689C4.46724 13.8448 4.48471 13.2168 4.61897 12.6472C4.76395 12.038 5.58503 8.5599 5.58503 8.5599C5.58503 8.5599 5.34571 8.08103 5.34571 7.37376C5.34571 6.26209 5.98972 5.43224 6.7913 5.43224C7.47425 5.43224 7.80305 5.94493 7.80305 6.55805C7.80305 7.24341 7.36628 8.26974 7.14153 9.21945C6.95379 10.0152 7.54038 10.6644 8.32448 10.6644C9.74579 10.6644 10.7031 8.83858 10.7031 6.67673C10.7031 5.03339 9.59594 3.803 7.58223 3.803C5.30676 3.803 3.89032 5.49936 3.89032 7.39417C3.89032 8.04792 4.08199 8.50832 4.38454 8.86485C4.52272 9.02925 4.54217 9.09541 4.49158 9.28318C4.45557 9.42133 4.37384 9.75353 4.33882 9.88484C4.28914 10.0751 4.13548 10.1427 3.96331 10.0731C2.91561 9.64455 2.42819 8.49808 2.42819 7.2079C2.42819 5.07714 4.22501 2.52299 7.78751 2.52299C10.6514 2.52299 12.5368 4.5944 12.5368 6.81872C12.5368 9.7608 10.9005 11.9592 8.48891 11.9592C7.6795 11.9592 6.91778 11.5209 6.65704 11.0238C6.65704 11.0238 6.22124 12.7523 6.12984 13.0854C5.97028 13.6633 5.65896 14.2419 5.37485 14.6923C6.04908 14.8912 6.76212 14.9997 7.50053 14.9997C11.6428 14.9997 15 11.642 15 7.49922C15 3.35799 11.6428 0.000244141 7.50053 0.000244141Z" fill="black"/>
</svg>
