<svg width="15" height="13" viewBox="0 0 15 13" fill="none" xmlns="http://www.w3.org/2000/svg">
<path d="M5.59602 12.6535C4.94738 12.6535 4.27973 12.601 3.60808 12.4957C2.42511 12.3101 1.2276 11.6913 0.888745 11.506L0 11.0201L0.962215 10.7037C2.01404 10.3579 2.65387 10.1433 3.44592 9.80729C2.65284 9.42323 2.04162 8.73235 1.74739 7.83926L1.52355 7.15971L1.70711 7.18775C1.53304 7.01231 1.3956 6.83424 1.28906 6.67231C0.910145 6.09679 0.709531 5.39355 0.752217 4.7909L0.794331 4.19776L1.14944 4.33532C0.999637 4.05242 0.891377 3.7503 0.827748 3.43364C0.672681 2.6614 0.802457 1.84097 1.19327 1.12355L1.5026 0.555692L1.91631 1.05259C3.2247 2.62432 4.88192 3.55666 6.8488 3.82961C6.76847 3.27583 6.82866 2.74139 7.0279 2.26234C7.25987 1.70456 7.67255 1.23158 8.22095 0.894436C8.83 0.520101 9.5686 0.338713 10.3007 0.383688C11.0774 0.43141 11.7826 0.722432 12.3426 1.22586C12.6161 1.15479 12.8177 1.07891 13.09 0.976375C13.2539 0.914692 13.4398 0.844654 13.6723 0.764546L14.5292 0.46929L13.9704 2.06528C14.0073 2.06219 14.0453 2.05955 14.085 2.05784L15.0001 2.01641L14.4592 2.75558C14.4282 2.79792 14.4203 2.80994 14.4093 2.82653C14.3657 2.89222 14.3115 2.97393 13.5691 3.96522C13.3832 4.21344 13.2904 4.53673 13.3077 4.87571C13.3735 6.16385 13.2155 7.32931 12.8377 8.33959C12.4804 9.2954 11.9268 10.1155 11.1923 10.7771C10.2834 11.5955 9.12445 12.156 7.74751 12.4425C7.07208 12.583 6.34675 12.6535 5.59602 12.6535Z" fill="black"/>
</svg>
