<svg width="20" height="20" viewBox="0 0 20 20" fill="none" xmlns="http://www.w3.org/2000/svg">
<path d="M20 3.33325H0V16.6667H20V3.33325Z" fill="#ECEFF1"/>
<path d="M11.25 3.33313H8.75V8.74977H0V11.2498H8.75V16.6664H11.25V11.2498H20V8.74977H11.25V3.33313Z" fill="#BB2E01"/>
<path d="M15.3821 12.3186L19.9999 14.8841V12.3186H15.3821Z" fill="#0057BB"/>
<path d="M12.1736 12.3186L19.9997 16.6664V15.437L14.3867 12.3186H12.1736Z" fill="#0052B4"/>
<path d="M17.9151 16.6664L12.1736 13.4764V16.6664H17.9151Z" fill="#0057BB"/>
<path d="M12.1736 12.3186L19.9997 16.6664V15.437L14.3867 12.3186H12.1736Z" fill="#F0F0F0"/>
<path d="M12.1736 12.3186L19.9997 16.6664V15.437L14.3867 12.3186H12.1736Z" fill="#BB2E01"/>
<path d="M3.52895 12.3185L0 14.279V12.3185H3.52895Z" fill="#0057BB"/>
<path d="M7.82596 12.8715V16.6664H0.995605L7.82596 12.8715Z" fill="#0057BB"/>
<path d="M5.61301 12.3186L0 15.437V16.6664L7.82609 12.3186H5.61301Z" fill="#BB2E01"/>
<path d="M4.61777 7.68107L0 5.1156V7.68107H4.61777Z" fill="#0057BB"/>
<path d="M7.82609 7.68094L0 3.33313V4.56258L5.61301 7.68094H7.82609Z" fill="#0052B4"/>
<path d="M2.08447 3.33313L7.82596 6.52313V3.33313H2.08447Z" fill="#0057BB"/>
<path d="M7.82609 7.68094L0 3.33313V4.56258L5.61301 7.68094H7.82609Z" fill="#F0F0F0"/>
<path d="M7.82609 7.68094L0 3.33313V4.56258L5.61301 7.68094H7.82609Z" fill="#BB2E01"/>
<path d="M16.4708 7.68064L19.9998 5.72009V7.68064H16.4708Z" fill="#0057BB"/>
<path d="M12.1736 7.12808V3.33313H19.0039L12.1736 7.12808Z" fill="#0057BB"/>
<path d="M14.3867 7.68094L19.9997 4.56258V3.33313L12.1736 7.68094H14.3867Z" fill="#BB2E01"/>
</svg>
